<mxfile host="Electron" modified="2024-10-05T13:18:03.992Z" agent="Mozilla/5.0 (X11; Linux x86_64) AppleWebKit/537.36 (KHTML, like Gecko) draw.io/24.6.4 Chrome/124.0.6367.207 Electron/30.0.6 Safari/537.36" etag="t9uXPZLAtGcw-O-ImRsa" version="24.6.4" type="device">
  <diagram name="Page-1" id="DG944dSWWSMfqdGWG2z2">
    <mxGraphModel dx="1226" dy="780" grid="1" gridSize="10" guides="1" tooltips="1" connect="1" arrows="1" fold="1" page="1" pageScale="1" pageWidth="1100" pageHeight="850" math="0" shadow="0">
      <root>
        <mxCell id="0" />
        <mxCell id="1" parent="0" />
        <mxCell id="WYfozO06JU4knOSRTZqj-4" value="&lt;div style=&quot;color: rgb(212, 212, 212); background-color: rgb(30, 30, 30); font-family: &amp;quot;Droid Sans Mono&amp;quot;, &amp;quot;monospace&amp;quot;, monospace; font-size: 14px; line-height: 19px; white-space: pre;&quot;&gt;&lt;span style=&quot;color: #ce9178;&quot;&gt;us-east-1a&lt;/span&gt;&lt;/div&gt;" style="fillColor=#ffe6cc;strokeColor=#d79b00;dashed=1;verticalAlign=top;fontStyle=0;whiteSpace=wrap;html=1;" vertex="1" parent="1">
          <mxGeometry x="155" y="212" width="390" height="560" as="geometry" />
        </mxCell>
        <mxCell id="WYfozO06JU4knOSRTZqj-6" value="&lt;div style=&quot;color: rgb(212, 212, 212); background-color: rgb(30, 30, 30); font-family: &amp;quot;Droid Sans Mono&amp;quot;, &amp;quot;monospace&amp;quot;, monospace; font-size: 14px; line-height: 19px; white-space: pre;&quot;&gt;&lt;span style=&quot;color: #ce9178;&quot;&gt;prv_subnet_02&lt;/span&gt;&lt;/div&gt;" style="points=[[0,0],[0.25,0],[0.5,0],[0.75,0],[1,0],[1,0.25],[1,0.5],[1,0.75],[1,1],[0.75,1],[0.5,1],[0.25,1],[0,1],[0,0.75],[0,0.5],[0,0.25]];outlineConnect=0;gradientColor=none;html=1;whiteSpace=wrap;fontSize=12;fontStyle=0;container=1;pointerEvents=0;collapsible=0;recursiveResize=0;shape=mxgraph.aws4.group;grIcon=mxgraph.aws4.group_security_group;grStroke=0;strokeColor=#00A4A6;fillColor=#E6F6F7;verticalAlign=top;align=left;spacingLeft=30;fontColor=#147EBA;dashed=0;" vertex="1" parent="1">
          <mxGeometry x="184" y="551" width="330" height="200" as="geometry" />
        </mxCell>
        <mxCell id="WYfozO06JU4knOSRTZqj-1" value="us-east-1" style="points=[[0,0],[0.25,0],[0.5,0],[0.75,0],[1,0],[1,0.25],[1,0.5],[1,0.75],[1,1],[0.75,1],[0.5,1],[0.25,1],[0,1],[0,0.75],[0,0.5],[0,0.25]];outlineConnect=0;gradientColor=none;html=1;whiteSpace=wrap;fontSize=12;fontStyle=0;container=1;pointerEvents=0;collapsible=0;recursiveResize=0;shape=mxgraph.aws4.group;grIcon=mxgraph.aws4.group_region;strokeColor=#00A4A6;fillColor=none;verticalAlign=top;align=left;spacingLeft=30;fontColor=#147EBA;dashed=1;" vertex="1" parent="1">
          <mxGeometry x="80" y="53" width="960" height="777" as="geometry" />
        </mxCell>
        <mxCell id="WYfozO06JU4knOSRTZqj-2" value="vpc_01" style="points=[[0,0],[0.25,0],[0.5,0],[0.75,0],[1,0],[1,0.25],[1,0.5],[1,0.75],[1,1],[0.75,1],[0.5,1],[0.25,1],[0,1],[0,0.75],[0,0.5],[0,0.25]];outlineConnect=0;gradientColor=none;html=1;whiteSpace=wrap;fontSize=12;fontStyle=0;container=1;pointerEvents=0;collapsible=0;recursiveResize=0;shape=mxgraph.aws4.group;grIcon=mxgraph.aws4.group_vpc2;strokeColor=#8C4FFF;fillColor=none;verticalAlign=top;align=left;spacingLeft=30;fontColor=#AAB7B8;dashed=0;" vertex="1" parent="WYfozO06JU4knOSRTZqj-1">
          <mxGeometry x="40" y="40" width="880" height="710" as="geometry" />
        </mxCell>
        <mxCell id="WYfozO06JU4knOSRTZqj-5" value="&lt;div style=&quot;color: rgb(212, 212, 212); background-color: rgb(30, 30, 30); font-family: &amp;quot;Droid Sans Mono&amp;quot;, &amp;quot;monospace&amp;quot;, monospace; font-size: 14px; line-height: 19px; white-space: pre;&quot;&gt;&lt;span style=&quot;color: #ce9178;&quot;&gt;us-east-1b&quot;&lt;/span&gt;&lt;/div&gt;" style="fillColor=#ffe6cc;strokeColor=#d79b00;dashed=1;verticalAlign=top;fontStyle=0;whiteSpace=wrap;html=1;" vertex="1" parent="WYfozO06JU4knOSRTZqj-2">
          <mxGeometry x="455" y="119" width="390" height="560" as="geometry" />
        </mxCell>
        <mxCell id="WYfozO06JU4knOSRTZqj-7" value="&lt;div style=&quot;color: rgb(212, 212, 212); background-color: rgb(30, 30, 30); font-family: &amp;quot;Droid Sans Mono&amp;quot;, &amp;quot;monospace&amp;quot;, monospace; font-size: 14px; line-height: 19px; white-space: pre;&quot;&gt;&lt;span style=&quot;color: #4fc1ff;&quot;&gt;prv_subnet_01&lt;/span&gt;&lt;/div&gt;" style="points=[[0,0],[0.25,0],[0.5,0],[0.75,0],[1,0],[1,0.25],[1,0.5],[1,0.75],[1,1],[0.75,1],[0.5,1],[0.25,1],[0,1],[0,0.75],[0,0.5],[0,0.25]];outlineConnect=0;gradientColor=none;html=1;whiteSpace=wrap;fontSize=12;fontStyle=0;container=1;pointerEvents=0;collapsible=0;recursiveResize=0;shape=mxgraph.aws4.group;grIcon=mxgraph.aws4.group_security_group;grStroke=0;strokeColor=#00A4A6;fillColor=#E6F6F7;verticalAlign=top;align=left;spacingLeft=30;fontColor=#147EBA;dashed=0;" vertex="1" parent="WYfozO06JU4knOSRTZqj-2">
          <mxGeometry x="489" y="458" width="330" height="200" as="geometry" />
        </mxCell>
        <mxCell id="WYfozO06JU4knOSRTZqj-9" value="&lt;div&gt;Secondary RDS&lt;br&gt;&lt;/div&gt;" style="sketch=0;points=[[0,0,0],[0.25,0,0],[0.5,0,0],[0.75,0,0],[1,0,0],[0,1,0],[0.25,1,0],[0.5,1,0],[0.75,1,0],[1,1,0],[0,0.25,0],[0,0.5,0],[0,0.75,0],[1,0.25,0],[1,0.5,0],[1,0.75,0]];outlineConnect=0;fontColor=#232F3E;fillColor=#C925D1;strokeColor=#ffffff;dashed=0;verticalLabelPosition=bottom;verticalAlign=top;align=center;html=1;fontSize=12;fontStyle=0;aspect=fixed;shape=mxgraph.aws4.resourceIcon;resIcon=mxgraph.aws4.rds;" vertex="1" parent="WYfozO06JU4knOSRTZqj-7">
          <mxGeometry x="126" y="61" width="78" height="78" as="geometry" />
        </mxCell>
        <mxCell id="WYfozO06JU4knOSRTZqj-10" value="&lt;div style=&quot;color: rgb(212, 212, 212); background-color: rgb(30, 30, 30); font-family: &amp;quot;Droid Sans Mono&amp;quot;, &amp;quot;monospace&amp;quot;, monospace; font-size: 14px; line-height: 19px; white-space: pre;&quot;&gt;&lt;span style=&quot;color: #4fc1ff;&quot;&gt;secgrp_RDS_01&lt;/span&gt;&lt;/div&gt;" style="fontStyle=0;verticalAlign=top;align=center;spacingTop=-2;fillColor=none;rounded=0;whiteSpace=wrap;html=1;strokeColor=#FF0000;strokeWidth=2;dashed=1;container=1;collapsible=0;expand=0;recursiveResize=0;" vertex="1" parent="WYfozO06JU4knOSRTZqj-2">
          <mxGeometry x="160" y="498" width="560" height="140" as="geometry" />
        </mxCell>
        <mxCell id="WYfozO06JU4knOSRTZqj-14" value="&lt;div style=&quot;color: rgb(212, 212, 212); background-color: rgb(30, 30, 30); font-family: &amp;quot;Droid Sans Mono&amp;quot;, &amp;quot;monospace&amp;quot;, monospace; font-size: 14px; line-height: 19px; white-space: pre;&quot;&gt;&lt;span style=&quot;color: #4fc1ff;&quot;&gt;pub_subnet_01&lt;/span&gt;&lt;/div&gt;" style="points=[[0,0],[0.25,0],[0.5,0],[0.75,0],[1,0],[1,0.25],[1,0.5],[1,0.75],[1,1],[0.75,1],[0.5,1],[0.25,1],[0,1],[0,0.75],[0,0.5],[0,0.25]];outlineConnect=0;gradientColor=none;html=1;whiteSpace=wrap;fontSize=12;fontStyle=0;container=1;pointerEvents=0;collapsible=0;recursiveResize=0;shape=mxgraph.aws4.group;grIcon=mxgraph.aws4.group_security_group;grStroke=0;strokeColor=#7AA116;fillColor=#F2F6E8;verticalAlign=top;align=left;spacingLeft=30;fontColor=#248814;dashed=0;" vertex="1" parent="WYfozO06JU4knOSRTZqj-2">
          <mxGeometry x="70" y="198" width="330" height="200" as="geometry" />
        </mxCell>
        <mxCell id="WYfozO06JU4knOSRTZqj-19" value="&lt;div style=&quot;color: rgb(212, 212, 212); background-color: rgb(30, 30, 30); font-family: &amp;quot;Droid Sans Mono&amp;quot;, &amp;quot;monospace&amp;quot;, monospace; font-size: 14px; line-height: 19px; white-space: pre;&quot;&gt;&lt;span style=&quot;color: #4fc1ff;&quot;&gt;pub_subnet_02&lt;/span&gt;&lt;/div&gt;" style="points=[[0,0],[0.25,0],[0.5,0],[0.75,0],[1,0],[1,0.25],[1,0.5],[1,0.75],[1,1],[0.75,1],[0.5,1],[0.25,1],[0,1],[0,0.75],[0,0.5],[0,0.25]];outlineConnect=0;gradientColor=none;html=1;whiteSpace=wrap;fontSize=12;fontStyle=0;container=1;pointerEvents=0;collapsible=0;recursiveResize=0;shape=mxgraph.aws4.group;grIcon=mxgraph.aws4.group_security_group;grStroke=0;strokeColor=#7AA116;fillColor=#F2F6E8;verticalAlign=top;align=left;spacingLeft=30;fontColor=#248814;dashed=0;" vertex="1" parent="WYfozO06JU4knOSRTZqj-2">
          <mxGeometry x="480" y="198" width="330" height="200" as="geometry" />
        </mxCell>
        <mxCell id="WYfozO06JU4knOSRTZqj-20" value="APP_02" style="sketch=0;points=[[0,0,0],[0.25,0,0],[0.5,0,0],[0.75,0,0],[1,0,0],[0,1,0],[0.25,1,0],[0.5,1,0],[0.75,1,0],[1,1,0],[0,0.25,0],[0,0.5,0],[0,0.75,0],[1,0.25,0],[1,0.5,0],[1,0.75,0]];outlineConnect=0;fontColor=#232F3E;fillColor=#ED7100;strokeColor=#ffffff;dashed=0;verticalLabelPosition=bottom;verticalAlign=top;align=center;html=1;fontSize=12;fontStyle=0;aspect=fixed;shape=mxgraph.aws4.resourceIcon;resIcon=mxgraph.aws4.ec2;" vertex="1" parent="WYfozO06JU4knOSRTZqj-2">
          <mxGeometry x="601" y="258" width="78" height="78" as="geometry" />
        </mxCell>
        <mxCell id="WYfozO06JU4knOSRTZqj-27" value="" style="outlineConnect=0;dashed=0;verticalLabelPosition=bottom;verticalAlign=top;align=center;html=1;shape=mxgraph.aws3.application_load_balancer;fillColor=#F58534;gradientColor=none;" vertex="1" parent="WYfozO06JU4knOSRTZqj-2">
          <mxGeometry x="412.5" y="57" width="54.5" height="53" as="geometry" />
        </mxCell>
        <mxCell id="WYfozO06JU4knOSRTZqj-30" value="" style="endArrow=classic;html=1;rounded=0;exitX=0.855;exitY=0.855;exitDx=0;exitDy=0;exitPerimeter=0;" edge="1" parent="WYfozO06JU4knOSRTZqj-2" source="WYfozO06JU4knOSRTZqj-27" target="WYfozO06JU4knOSRTZqj-20">
          <mxGeometry width="50" height="50" relative="1" as="geometry">
            <mxPoint x="430" y="112" as="sourcePoint" />
            <mxPoint x="278" y="268" as="targetPoint" />
          </mxGeometry>
        </mxCell>
        <mxCell id="WYfozO06JU4knOSRTZqj-31" style="edgeStyle=orthogonalEdgeStyle;rounded=0;orthogonalLoop=1;jettySize=auto;html=1;" edge="1" parent="WYfozO06JU4knOSRTZqj-1" source="WYfozO06JU4knOSRTZqj-28" target="WYfozO06JU4knOSRTZqj-27">
          <mxGeometry relative="1" as="geometry" />
        </mxCell>
        <mxCell id="WYfozO06JU4knOSRTZqj-28" value="" style="outlineConnect=0;dashed=0;verticalLabelPosition=bottom;verticalAlign=top;align=center;html=1;shape=mxgraph.aws3.internet_gateway;fillColor=#F58534;gradientColor=none;" vertex="1" parent="WYfozO06JU4knOSRTZqj-1">
          <mxGeometry x="450" y="-3" width="60" height="63" as="geometry" />
        </mxCell>
        <mxCell id="WYfozO06JU4knOSRTZqj-8" value="Primary RDS" style="sketch=0;points=[[0,0,0],[0.25,0,0],[0.5,0,0],[0.75,0,0],[1,0,0],[0,1,0],[0.25,1,0],[0.5,1,0],[0.75,1,0],[1,1,0],[0,0.25,0],[0,0.5,0],[0,0.75,0],[1,0.25,0],[1,0.5,0],[1,0.75,0]];outlineConnect=0;fontColor=#232F3E;fillColor=#C925D1;strokeColor=#ffffff;dashed=0;verticalLabelPosition=bottom;verticalAlign=top;align=center;html=1;fontSize=12;fontStyle=0;aspect=fixed;shape=mxgraph.aws4.resourceIcon;resIcon=mxgraph.aws4.rds;" vertex="1" parent="1">
          <mxGeometry x="311" y="612" width="78" height="78" as="geometry" />
        </mxCell>
        <mxCell id="WYfozO06JU4knOSRTZqj-11" value="" style="shape=flexArrow;endArrow=classic;startArrow=classic;html=1;rounded=0;exitX=1;exitY=0.5;exitDx=0;exitDy=0;exitPerimeter=0;entryX=0.821;entryY=0.429;entryDx=0;entryDy=0;entryPerimeter=0;fillColor=#d5e8d4;strokeColor=#82b366;dashed=1;endSize=6;startSize=7;strokeWidth=0;" edge="1" parent="1">
          <mxGeometry width="100" height="100" relative="1" as="geometry">
            <mxPoint x="387" y="651" as="sourcePoint" />
            <mxPoint x="738.7600000000002" y="651.06" as="targetPoint" />
          </mxGeometry>
        </mxCell>
        <mxCell id="WYfozO06JU4knOSRTZqj-13" value="Sync" style="edgeLabel;html=1;align=center;verticalAlign=middle;resizable=0;points=[];" vertex="1" connectable="0" parent="WYfozO06JU4knOSRTZqj-11">
          <mxGeometry x="-0.005" y="-7" relative="1" as="geometry">
            <mxPoint as="offset" />
          </mxGeometry>
        </mxCell>
        <mxCell id="WYfozO06JU4knOSRTZqj-32" style="edgeStyle=orthogonalEdgeStyle;rounded=0;orthogonalLoop=1;jettySize=auto;html=1;" edge="1" parent="1" source="WYfozO06JU4knOSRTZqj-16" target="WYfozO06JU4knOSRTZqj-8">
          <mxGeometry relative="1" as="geometry" />
        </mxCell>
        <mxCell id="WYfozO06JU4knOSRTZqj-16" value="APP_01" style="sketch=0;points=[[0,0,0],[0.25,0,0],[0.5,0,0],[0.75,0,0],[1,0,0],[0,1,0],[0.25,1,0],[0.5,1,0],[0.75,1,0],[1,1,0],[0,0.25,0],[0,0.5,0],[0,0.75,0],[1,0.25,0],[1,0.5,0],[1,0.75,0]];outlineConnect=0;fontColor=#232F3E;fillColor=#ED7100;strokeColor=#ffffff;dashed=0;verticalLabelPosition=bottom;verticalAlign=top;align=center;html=1;fontSize=12;fontStyle=0;aspect=fixed;shape=mxgraph.aws4.resourceIcon;resIcon=mxgraph.aws4.ec2;" vertex="1" parent="1">
          <mxGeometry x="311" y="351" width="78" height="78" as="geometry" />
        </mxCell>
        <mxCell id="WYfozO06JU4knOSRTZqj-26" value="Auto Scaling group" style="points=[[0,0],[0.25,0],[0.5,0],[0.75,0],[1,0],[1,0.25],[1,0.5],[1,0.75],[1,1],[0.75,1],[0.5,1],[0.25,1],[0,1],[0,0.75],[0,0.5],[0,0.25]];outlineConnect=0;gradientColor=none;html=1;whiteSpace=wrap;fontSize=12;fontStyle=0;container=1;pointerEvents=0;collapsible=0;recursiveResize=0;shape=mxgraph.aws4.groupCenter;grIcon=mxgraph.aws4.group_auto_scaling_group;grStroke=1;strokeColor=#D86613;fillColor=none;verticalAlign=top;align=center;fontColor=#D86613;dashed=1;spacingTop=25;" vertex="1" parent="1">
          <mxGeometry x="290" y="341" width="530" height="120" as="geometry" />
        </mxCell>
        <mxCell id="WYfozO06JU4knOSRTZqj-29" value="" style="endArrow=classic;html=1;rounded=0;exitX=0.145;exitY=0.855;exitDx=0;exitDy=0;exitPerimeter=0;" edge="1" parent="1" source="WYfozO06JU4knOSRTZqj-27" target="WYfozO06JU4knOSRTZqj-16">
          <mxGeometry width="50" height="50" relative="1" as="geometry">
            <mxPoint x="520" y="400" as="sourcePoint" />
            <mxPoint x="570" y="350" as="targetPoint" />
          </mxGeometry>
        </mxCell>
        <mxCell id="WYfozO06JU4knOSRTZqj-34" value="" style="endArrow=classic;html=1;rounded=0;exitX=0;exitY=1;exitDx=0;exitDy=0;exitPerimeter=0;entryX=1;entryY=0.25;entryDx=0;entryDy=0;entryPerimeter=0;" edge="1" parent="1" source="WYfozO06JU4knOSRTZqj-20" target="WYfozO06JU4knOSRTZqj-8">
          <mxGeometry width="50" height="50" relative="1" as="geometry">
            <mxPoint x="520" y="400" as="sourcePoint" />
            <mxPoint x="570" y="350" as="targetPoint" />
          </mxGeometry>
        </mxCell>
      </root>
    </mxGraphModel>
  </diagram>
</mxfile>
